<svg width="40" height="44" viewBox="0 0 40 44" fill="none" xmlns="http://www.w3.org/2000/svg">
<g clip-path="url(#clip0_2003_12)" filter="url(#filter0_d_2003_12)">
<g filter="url(#filter1_dd_2003_12)">
<path d="M7.9155 7.94025V4H15.9797V7.9896H23.971V4H32.0845V7.94025H36V36H23.9956V32.0045C23.9942 30.9457 23.5726 29.9308 22.8234 29.1826C22.0742 28.4345 21.0588 28.0143 20 28.0143C18.9412 28.0143 17.9257 28.4345 17.1766 29.1826C16.4274 29.9308 16.0058 30.9457 16.0044 32.0045V36H4V7.94025H7.9155Z" fill="url(#paint0_linear_2003_12)"/>
<path d="M8.4155 7.94025V8.44025H7.9155H4.5V35.5H15.5044V32.0045V32.0038C15.506 30.8125 15.9803 29.6706 16.8233 28.8288C17.6661 27.9871 18.8087 27.5143 20 27.5143C21.1913 27.5143 22.3338 27.9871 23.1767 28.8288L23.1767 28.8288C24.0197 29.6706 24.494 30.8125 24.4956 32.0038V32.0045V35.5H35.5V8.44025H32.0845H31.5845V7.94025V4.5H24.471V7.9896V8.4896H23.971H15.9797H15.4797V7.9896V4.5H8.4155V7.94025Z" stroke="#3B3D40"/>
</g>
<path d="M12.0119 19.521H12.0059L11.5259 20.451H11.1479L10.6679 19.521H10.6619V21H10.2629V18.81H10.6829L11.3339 20.1H11.3399L11.9909 18.81H12.4229V21H12.0119V19.521ZM12.9687 19.629C13.1087 19.483 13.2977 19.41 13.5357 19.41C13.7737 19.41 13.9627 19.483 14.1027 19.629C14.2427 19.775 14.3127 19.972 14.3127 20.22C14.3127 20.468 14.2427 20.665 14.1027 20.811C13.9627 20.957 13.7737 21.03 13.5357 21.03C13.2977 21.03 13.1087 20.957 12.9687 20.811C12.8307 20.665 12.7617 20.468 12.7617 20.22C12.7617 19.972 12.8307 19.775 12.9687 19.629ZM13.5357 20.733C13.6577 20.733 13.7527 20.69 13.8207 20.604C13.8887 20.516 13.9227 20.388 13.9227 20.22C13.9227 20.052 13.8887 19.925 13.8207 19.839C13.7527 19.751 13.6577 19.707 13.5357 19.707C13.4157 19.707 13.3217 19.751 13.2537 19.839C13.1857 19.925 13.1517 20.052 13.1517 20.22C13.1517 20.388 13.1857 20.516 13.2537 20.604C13.3217 20.69 13.4157 20.733 13.5357 20.733ZM16.0398 18.75V21H15.6768L15.6678 20.781H15.6618C15.5438 20.947 15.3848 21.03 15.1848 21.03C14.9988 21.03 14.8478 20.96 14.7318 20.82C14.6178 20.678 14.5608 20.478 14.5608 20.22C14.5608 19.956 14.6158 19.755 14.7258 19.617C14.8378 19.479 14.9908 19.41 15.1848 19.41C15.3728 19.41 15.5258 19.487 15.6438 19.641H15.6498V18.75H16.0398ZM14.9358 20.22C14.9358 20.382 14.9688 20.507 15.0348 20.595C15.1028 20.681 15.1898 20.724 15.2958 20.724C15.4018 20.724 15.4868 20.682 15.5508 20.598C15.6168 20.512 15.6498 20.391 15.6498 20.235V20.205C15.6498 20.053 15.6168 19.934 15.5508 19.848C15.4868 19.76 15.4018 19.716 15.2958 19.716C15.1818 19.716 15.0928 19.758 15.0288 19.842C14.9668 19.926 14.9358 20.052 14.9358 20.22ZM16.8392 19.44V20.37C16.8392 20.504 16.8572 20.596 16.8932 20.646C16.9312 20.694 16.9952 20.718 17.0852 20.718C17.1732 20.718 17.2532 20.674 17.3252 20.586C17.3992 20.496 17.4362 20.391 17.4362 20.271V19.44H17.8262V21H17.4602L17.4512 20.781H17.4452C17.3852 20.859 17.3112 20.92 17.2232 20.964C17.1352 21.008 17.0442 21.03 16.9502 21.03C16.7802 21.03 16.6552 20.982 16.5752 20.886C16.4952 20.788 16.4552 20.629 16.4552 20.409V19.44H16.8392ZM18.3297 21V18.75H18.7407V21H18.3297ZM19.5296 20.094H20.2616C20.2596 19.964 20.2266 19.865 20.1626 19.797C20.1006 19.727 20.0126 19.692 19.8986 19.692C19.7886 19.692 19.7006 19.727 19.6346 19.797C19.5706 19.867 19.5356 19.966 19.5296 20.094ZM19.5296 20.361C19.5396 20.479 19.5846 20.573 19.6646 20.643C19.7466 20.711 19.8496 20.745 19.9736 20.745C20.1216 20.745 20.2686 20.708 20.4146 20.634L20.5046 20.91C20.3246 20.99 20.1346 21.03 19.9346 21.03C19.6986 21.03 19.5066 20.957 19.3586 20.811C19.2126 20.665 19.1396 20.468 19.1396 20.22C19.1396 19.968 19.2076 19.77 19.3436 19.626C19.4796 19.482 19.6636 19.41 19.8956 19.41C20.1276 19.41 20.3076 19.479 20.4356 19.617C20.5656 19.755 20.6306 19.953 20.6306 20.211C20.6306 20.261 20.6276 20.311 20.6216 20.361H19.5296ZM22.9317 19.119C22.7057 19.119 22.5257 19.19 22.3917 19.332C22.2577 19.472 22.1907 19.663 22.1907 19.905C22.1907 20.145 22.2597 20.336 22.3977 20.478C22.5357 20.62 22.7137 20.691 22.9317 20.691C23.1137 20.691 23.2917 20.636 23.4657 20.526L23.5917 20.835C23.3897 20.965 23.1567 21.03 22.8927 21.03C22.5507 21.03 22.2767 20.929 22.0707 20.727C21.8647 20.523 21.7617 20.249 21.7617 19.905C21.7617 19.559 21.8627 19.285 22.0647 19.083C22.2667 18.881 22.5427 18.78 22.8927 18.78C23.1567 18.78 23.3897 18.845 23.5917 18.975L23.4657 19.284C23.2917 19.174 23.1137 19.119 22.9317 19.119ZM23.9467 19.44H24.3187L24.3247 19.74H24.3307C24.5087 19.52 24.7477 19.41 25.0477 19.41V19.728C24.8257 19.728 24.6527 19.782 24.5287 19.89C24.4067 19.996 24.3457 20.139 24.3457 20.319V21H23.9467V19.44ZM25.942 19.41C26.18 19.41 26.351 19.457 26.455 19.551C26.559 19.643 26.611 19.793 26.611 20.001V20.58C26.611 20.722 26.626 20.862 26.656 21H26.287C26.275 20.934 26.266 20.857 26.26 20.769H26.254C26.198 20.851 26.122 20.915 26.026 20.961C25.932 21.007 25.829 21.03 25.717 21.03C25.571 21.03 25.454 20.99 25.366 20.91C25.28 20.828 25.237 20.715 25.237 20.571C25.237 20.397 25.31 20.258 25.456 20.154C25.604 20.048 25.816 19.995 26.092 19.995H26.221V19.986C26.221 19.88 26.2 19.806 26.158 19.764C26.116 19.722 26.041 19.701 25.933 19.701C25.737 19.701 25.552 19.746 25.378 19.836L25.321 19.545C25.511 19.455 25.718 19.41 25.942 19.41ZM25.603 20.541C25.603 20.605 25.622 20.655 25.66 20.691C25.698 20.727 25.75 20.745 25.816 20.745C25.93 20.745 26.026 20.708 26.104 20.634C26.182 20.56 26.221 20.467 26.221 20.355V20.253H26.092C25.934 20.253 25.813 20.28 25.729 20.334C25.645 20.386 25.603 20.455 25.603 20.541ZM26.9512 19.791V19.5H27.3262V19.371C27.3262 19.177 27.3752 19.03 27.4732 18.93C27.5712 18.83 27.7152 18.78 27.9052 18.78C28.0232 18.78 28.1352 18.795 28.2412 18.825L28.1752 19.125C28.1052 19.095 28.0342 19.08 27.9622 19.08C27.8742 19.08 27.8122 19.102 27.7762 19.146C27.7422 19.188 27.7252 19.263 27.7252 19.371V19.5H28.2112V19.791H27.7252V21H27.3262V19.791H26.9512ZM29.2295 19.5H29.7665V19.791H29.2295V20.43C29.2295 20.548 29.2445 20.628 29.2745 20.67C29.3045 20.71 29.3585 20.73 29.4365 20.73C29.5325 20.73 29.6225 20.713 29.7065 20.679L29.7575 20.97C29.6335 21.01 29.4995 21.03 29.3555 21.03C29.1715 21.03 29.0375 20.989 28.9535 20.907C28.8715 20.825 28.8305 20.689 28.8305 20.499V19.791H28.5065V19.5H28.8305V18.93H29.2295V19.5Z" fill="white"/>
</g>
<defs>
<filter id="filter0_d_2003_12" x="-4" y="0" width="48" height="48" filterUnits="userSpaceOnUse" color-interpolation-filters="sRGB">
<feFlood flood-opacity="0" result="BackgroundImageFix"/>
<feColorMatrix in="SourceAlpha" type="matrix" values="0 0 0 0 0 0 0 0 0 0 0 0 0 0 0 0 0 0 127 0" result="hardAlpha"/>
<feOffset dy="4"/>
<feGaussianBlur stdDeviation="2"/>
<feComposite in2="hardAlpha" operator="out"/>
<feColorMatrix type="matrix" values="0 0 0 0 0 0 0 0 0 0 0 0 0 0 0 0 0 0 0.25 0"/>
<feBlend mode="normal" in2="BackgroundImageFix" result="effect1_dropShadow_2003_12"/>
<feBlend mode="normal" in="SourceGraphic" in2="effect1_dropShadow_2003_12" result="shape"/>
</filter>
<filter id="filter1_dd_2003_12" x="0" y="4" width="40" height="40" filterUnits="userSpaceOnUse" color-interpolation-filters="sRGB">
<feFlood flood-opacity="0" result="BackgroundImageFix"/>
<feColorMatrix in="SourceAlpha" type="matrix" values="0 0 0 0 0 0 0 0 0 0 0 0 0 0 0 0 0 0 127 0" result="hardAlpha"/>
<feOffset dy="4"/>
<feGaussianBlur stdDeviation="2"/>
<feComposite in2="hardAlpha" operator="out"/>
<feColorMatrix type="matrix" values="0 0 0 0 0 0 0 0 0 0 0 0 0 0 0 0 0 0 0.25 0"/>
<feBlend mode="normal" in2="BackgroundImageFix" result="effect1_dropShadow_2003_12"/>
<feColorMatrix in="SourceAlpha" type="matrix" values="0 0 0 0 0 0 0 0 0 0 0 0 0 0 0 0 0 0 127 0" result="hardAlpha"/>
<feOffset dy="4"/>
<feGaussianBlur stdDeviation="2"/>
<feComposite in2="hardAlpha" operator="out"/>
<feColorMatrix type="matrix" values="0 0 0 0 0 0 0 0 0 0 0 0 0 0 0 0 0 0 0.25 0"/>
<feBlend mode="normal" in2="effect1_dropShadow_2003_12" result="effect2_dropShadow_2003_12"/>
<feBlend mode="normal" in="SourceGraphic" in2="effect2_dropShadow_2003_12" result="shape"/>
</filter>
<linearGradient id="paint0_linear_2003_12" x1="37.0581" y1="4.89955" x2="2.2228" y2="39.7345" gradientUnits="userSpaceOnUse">
<stop offset="0.475861" stop-color="#3C99CC"/>
<stop offset="0.475962" stop-color="#6B57FF"/>
<stop offset="0.93739" stop-color="#6B57FF"/>
<stop offset="1" stop-color="#3BEA62"/>
</linearGradient>
<clipPath id="clip0_2003_12">
<rect width="40" height="40" fill="white" transform="matrix(-1 0 0 1 40 0)"/>
</clipPath>
</defs>
</svg>
