<svg width="16" height="16" viewBox="0 0 16 16" fill="none" xmlns="http://www.w3.org/2000/svg">
<path d="M2.4 11.2V2.40001H8.8V3.20001H9.6V1.60001H1.6V12H5.6V11.2H2.4Z" fill="white"/>
<path d="M3.2 4H5.6V4.8H3.2V4Z" fill="white"/>
<path d="M3.2 5.60001H5.6V6.40001H3.2V5.60001Z" fill="white"/>
<path d="M3.2 7.2H5.6V8H3.2V7.2Z" fill="white"/>
<path d="M8 6.39999H12.8V7.19999H8V6.39999Z" fill="white"/>
<path d="M8 8V8.8H8.8H12.8V8H8Z" fill="white"/>
<path d="M8 9.60001H12.8V10.4H8V9.60001Z" fill="white"/>
<path d="M13.6 4H8H7.2H6.4V4.8V13.6V14.4H7.2H11.3373C11.7616 14.4 12.1686 14.2314 12.4686 13.9314L13.9314 12.4686C14.2314 12.1686 14.4 11.7616 14.4 11.3373V4.8V4H13.6ZM12.8 12H12V12.8C12 13.2418 11.6418 13.6 11.2 13.6H7.2V4.8H8H13.6V11.2C13.6 11.6418 13.2418 12 12.8 12Z" fill="white"/>
</svg>
